# xmcd
#
# Track frame offsets: 
#        150
#        14215
#        28873
#        43409
#        53666
#        70458
#        88306
#        111506
#        133257
#        156346
#        169253
#        183775
#        201888
#        222390
#
# Disc length: 3286 seconds
#
# Revision: 1
# Processed by: cddbd v1.5.2PL0 Copyright (c) Steve Scherf et al.
# Submitted via: ExactAudioCopy v1.0b3
#
DISCID=e10cd40e
DTITLE=Mikey Jr - It Ain't Hard To Tell
DYEAR=2010
DGENRE=Blues
TTITLE0=It Ain't Hard To Tell
TTITLE1=The Cheapskate
TTITLE2=Chitlin Con Carne
TTITLE3=Tou All Alone
TTITLE4=Pocket Full Of Money
TTITLE5=Can't Be Satisfied
TTITLE6=Hand Jove
TTITLE7=What Have I Done
TTITLE8=Telephone Blues
TTITLE9=Hawaiian Eyes
TTITLE10=32-20 Blues
TTITLE11=Mikey's At The Bar
TTITLE12=I Wish You Would
TTITLE13=Mikey's Out Back
EXTD=
EXTT0=
EXTT1=
EXTT2=
EXTT3=
EXTT4=
EXTT5=
EXTT6=
EXTT7=
EXTT8=
EXTT9=
EXTT10=
EXTT11=
EXTT12=
EXTT13=
PLAYORDER=
